<?xml version="1.0" standalone="no"?>
<!DOCTYPE svg PUBLIC "-//W3C//DTD SVG 20010904//EN"
 "http://www.w3.org/TR/2001/REC-SVG-20010904/DTD/svg10.dtd">
<svg version="1.0" xmlns="http://www.w3.org/2000/svg"
 width="406.000000pt" height="433.000000pt" viewBox="0 0 406.000000 433.000000"
 preserveAspectRatio="xMidYMid meet">

<g transform="translate(0.000000,433.000000) scale(0.100000,-0.100000)"
fill="#000000" stroke="none">
<path d="M2179 4320 c-120 -21 -197 -81 -250 -194 -43 -92 -54 -191 -35 -303
20 -117 36 -165 97 -288 160 -322 482 -633 840 -811 141 -70 214 -98 347 -130
89 -22 123 -25 202 -21 308 15 411 185 329 540 -34 144 -95 273 -209 442 -278
409 -795 740 -1200 768 -41 3 -96 2 -121 -3z m428 -215 c128 -27 305 -111 430
-204 309 -229 493 -533 470 -777 -10 -109 -55 -181 -142 -227 -58 -31 -222
-30 -315 2 -357 122 -688 418 -834 745 -36 82 -40 99 -40 171 -1 93 23 152 87
222 68 74 198 100 344 68z"/>
<path d="M2465 3969 c-44 -11 -79 -40 -102 -83 -25 -47 -13 -170 22 -237 117
-225 329 -433 551 -540 183 -87 290 -109 364 -71 54 27 75 73 74 162 -5 247
-228 536 -533 690 -143 73 -283 102 -376 79z m290 -212 c38 -38 55 -85 35 -97
-7 -4 -69 -7 -138 -6 -142 1 -156 8 -132 65 18 44 71 70 144 71 53 0 61 -3 91
-33z"/>
<path d="M1684 3814 c-57 -158 -165 -348 -300 -529 -121 -162 -218 -270 -419
-465 -406 -394 -522 -518 -636 -685 -239 -348 -344 -725 -318 -1135 18 -288
119 -531 303 -727 126 -136 330 -239 516 -262 135 -17 311 18 429 85 55 31
137 108 157 147 14 26 14 27 -9 27 -14 0 -44 -7 -67 -15 -57 -20 -114 -19
-261 6 -213 36 -316 95 -389 224 -65 115 -83 236 -56 366 56 262 238 502 592
780 117 91 365 238 556 328 252 119 674 264 915 315 153 32 375 88 473 119
l75 24 -69 12 c-255 45 -594 221 -854 443 -137 117 -332 335 -401 448 -101
167 -110 186 -162 342 -53 161 -64 184 -75 152z m23 -498 l43 -63 -38 -94
c-45 -112 -110 -209 -231 -345 -118 -133 -481 -488 -611 -599 -58 -49 -163
-146 -235 -216 -170 -166 -215 -239 -363 -579 -27 -63 -58 -141 -68 -172 -25
-80 -38 -74 -30 15 15 155 45 295 85 397 25 61 130 263 170 325 67 105 183
235 352 395 506 481 718 720 834 943 17 31 35 57 40 57 6 -1 29 -29 52 -64z"/>
<path d="M3928 2483 c-8 -10 -35 -47 -60 -83 -54 -77 -191 -210 -268 -261
-143 -94 -299 -158 -481 -197 -52 -11 -224 -39 -384 -62 -159 -23 -333 -52
-386 -65 -169 -43 -363 -126 -422 -181 -20 -19 -27 -34 -27 -64 0 -66 41 -75
155 -34 246 89 589 160 930 194 144 14 346 63 464 112 144 59 247 133 412 298
195 192 235 271 173 334 -32 31 -83 35 -106 9z"/>
<path d="M3818 1929 c-100 -98 -168 -148 -272 -203 -162 -86 -274 -116 -676
-181 -124 -20 -241 -40 -260 -45 -19 -5 -95 -18 -168 -29 -147 -23 -325 -71
-387 -104 -53 -30 -73 -66 -57 -102 13 -27 14 -28 80 -22 37 3 123 19 192 35
152 36 366 76 516 96 351 48 600 103 718 160 70 34 259 155 301 193 52 47 155
176 157 196 2 39 -2 61 -15 69 -30 19 -58 5 -129 -63z"/>
<path d="M3805 1617 c-127 -129 -176 -162 -336 -225 -161 -64 -304 -94 -639
-137 -302 -38 -647 -113 -749 -163 -54 -26 -56 -28 -56 -67 0 -34 4 -42 29
-54 35 -17 143 -4 295 36 116 29 293 56 560 83 393 41 645 110 806 220 69 48
239 214 274 269 52 80 37 143 -35 156 -26 4 -40 -6 -149 -118z"/>
<path d="M1207 949 c-151 -36 -225 -167 -182 -324 40 -150 177 -230 336 -196
82 18 123 50 158 125 63 130 50 214 -47 315 -78 81 -158 105 -265 80z m118
-121 c23 -10 45 -46 45 -73 0 -43 -106 -113 -153 -101 -94 23 -104 158 -14
185 35 11 85 6 122 -11z"/>
</g>
</svg>
